<?xml version="1.0" encoding="utf-8"?>
<!-- Generator: Adobe Illustrator 16.0.1, SVG Export Plug-In . SVG Version: 6.00 Build 0)  -->
<!DOCTYPE svg PUBLIC "-//W3C//DTD SVG 1.1//EN" "http://www.w3.org/Graphics/SVG/1.1/DTD/svg11.dtd">
<svg version="1.1" id="Ebene_1" xmlns="http://www.w3.org/2000/svg" xmlns:xlink="http://www.w3.org/1999/xlink" x="0px" y="0px"
	 width="400px" height="400px" viewBox="0 0 400 400" enable-background="new 0 0 400 400" xml:space="preserve">
<rect fill="none" stroke="#000000" stroke-width="2" stroke-miterlimit="10" width="400" height="400"/>
<line fill="none" stroke="#000000" stroke-width="2" stroke-miterlimit="10" x1="96.198" y1="126.126" x2="96.198" y2="326.725"/>
<line fill="none" stroke="#000000" stroke-width="2" stroke-miterlimit="10" x1="120.15" y1="126.126" x2="400" y2="126.126"/>
<line fill="none" stroke="#000000" stroke-width="2" stroke-miterlimit="10" x1="120.15" y1="326.725" x2="400" y2="326.725"/>
<rect x="120.15" y="126.126" fill="#0286AA" stroke="#000000" stroke-width="2" stroke-miterlimit="10" width="279.85" height="200.599"/>
<rect fill="#A772AE" stroke="#000000" stroke-width="2" stroke-miterlimit="10" width="96.198" height="117.144"/>
<rect x="120.15" y="335.707" fill="#CC933F" stroke="#000000" stroke-width="2" stroke-miterlimit="10" width="279.85" height="64.293"/>
<line fill="none" stroke="#000000" stroke-width="2" stroke-miterlimit="10" x1="96.198" y1="335.707" x2="0" y2="335.707"/>
<line fill="none" stroke="#000000" stroke-width="2" stroke-miterlimit="10" x1="96.198" y1="126.126" x2="0" y2="126.126"/>
<line fill="none" stroke="#000000" stroke-width="2" stroke-miterlimit="10" x1="120.15" y1="126.126" x2="120.15" y2="326.725"/>
<line fill="none" stroke="#000000" stroke-width="2" stroke-miterlimit="10" x1="120.15" y1="117.144" x2="400" y2="117.144"/>
<line fill="none" stroke="#000000" stroke-width="2" stroke-miterlimit="10" x1="120.15" y1="0" x2="120.15" y2="117.144"/>
<line fill="none" stroke="#000000" stroke-width="2" stroke-miterlimit="10" x1="96.198" y1="-0.347" x2="96.198" y2="117.143"/>
<line fill="none" stroke="#000000" stroke-width="2" stroke-miterlimit="10" x1="96.198" y1="335.707" x2="96.198" y2="400"/>
<line fill="none" stroke="#000000" stroke-width="2" stroke-miterlimit="10" x1="96.198" y1="326.725" x2="0" y2="326.725"/>
<line fill="none" stroke="#000000" stroke-width="2" stroke-miterlimit="10" x1="120.15" y1="335.707" x2="120.15" y2="400"/>
<rect y="126.126" fill="#86BF57" stroke="#000000" stroke-width="2" stroke-miterlimit="10" width="96.197" height="200.599"/>
<rect x="120.15" fill="#FFFFFF" stroke="#000000" stroke-miterlimit="10" width="279.85" height="117.144"/>
<rect y="335.707" fill="#FFFFFF" stroke="#000000" stroke-miterlimit="10" width="96.198" height="64.293"/>
</svg>
